<?xml version="1.0"?>
<svg width="206" height="43" xmlns="http://www.w3.org/2000/svg" xmlns:svg="http://www.w3.org/2000/svg">
 <g class="layer">
  <title>Layer 1</title>
  <path d="m20,-0.78c11.05,0 20,8.95 20,20l0,14c0,1.59 -0.63,3.12 -1.76,4.24c-1.12,1.13 -2.65,1.76 -4.24,1.76l-13,0l0,-8.78c0,-2 0.12,-4.07 1.17,-5.78c0.75,-1.22 1.76,-2.26 2.95,-3.06c1.19,-0.8 2.54,-1.33 3.96,-1.56l0.38,-0.06c0.16,-0.06 0.29,-0.16 0.39,-0.3c0.1,-0.13 0.15,-0.29 0.15,-0.46c0,-0.17 -0.05,-0.33 -0.15,-0.47c-0.1,-0.13 -0.23,-0.23 -0.39,-0.29l-0.38,-0.06c-2.07,-0.34 -3.98,-1.32 -5.46,-2.8c-1.48,-1.48 -2.46,-3.39 -2.8,-5.46l-0.06,-0.38c-0.06,-0.16 -0.16,-0.3 -0.3,-0.39c-0.13,-0.1 -0.29,-0.15 -0.46,-0.15c-0.17,0 -0.33,0.05 -0.47,0.15c-0.13,0.09 -0.23,0.23 -0.29,0.39l-0.06,0.38c-0.23,1.42 -0.76,2.77 -1.56,3.96c-0.8,1.19 -1.85,2.2 -3.07,2.95c-1.7,1.05 -3.77,1.17 -5.78,1.17l-8.75,0c0.53,-10.58 9.27,-19 19.98,-19z" fill="#5044E5" id="svg_2"/>
  <path d="m0,20.22l8.77,0c2.01,0 4.08,0.12 5.78,1.17c1.34,0.82 2.46,1.94 3.28,3.27c1.05,1.71 1.17,3.78 1.17,5.78l0,8.78l-13,0c-1.59,0 -3.12,-0.63 -4.24,-1.76c-1.13,-1.12 -1.76,-2.65 -1.76,-4.24l0,-13zm40,-19c0,0.53 -0.21,1.04 -0.59,1.41c-0.37,0.38 -0.88,0.59 -1.41,0.59c-0.53,0 -1.04,-0.21 -1.41,-0.59c-0.38,-0.37 -0.59,-0.88 -0.59,-1.41c0,-0.53 0.21,-1.04 0.59,-1.42c0.37,-0.37 0.88,-0.58 1.41,-0.58c0.53,0 1.04,0.21 1.41,0.58c0.38,0.38 0.59,0.89 0.59,1.42z" fill="#5044E5" id="svg_3" transform="matrix(1 0 0 1 0 0)"/>
  <text fill="#000000" font-family="Cursive" font-size="24" id="svg_4" stroke-width="0" text-anchor="middle" transform="matrix(0.935852 0 0 0.850569 26.9939 2.89063)" x="102.06" xml:space="preserve" y="31.11">CampusConnect</text>
 </g>
</svg>