<?xml version="1.0" standalone="no"?>
<!DOCTYPE svg PUBLIC "-//W3C//DTD SVG 20010904//EN"
 "http://www.w3.org/TR/2001/REC-SVG-20010904/DTD/svg10.dtd">
<svg version="1.0" xmlns="http://www.w3.org/2000/svg"
 width="50.000000pt" height="50.000000pt" viewBox="0 0 50.000000 50.000000"
 preserveAspectRatio="xMidYMid meet">

<g transform="translate(0.000000,50.000000) scale(0.100000,-0.100000)"
fill="#000000" stroke="none">
<path d="M5 437 c-3 -7 -4 -96 -3 -197 l3 -185 245 0 245 0 0 195 0 195 -243
3 c-192 2 -244 0 -247 -11z m475 -187 l0 -180 -230 0 -230 0 0 180 0 180 230
0 230 0 0 -180z"/>
<path d="M133 360 c-46 -21 -83 -41 -83 -45 0 -5 59 -126 65 -133 2 -2 17 4
34 12 46 24 51 21 51 -34 l0 -50 120 0 120 0 0 95 0 95 -83 0 -84 0 -23 50
c-13 28 -26 50 -29 50 -3 0 -43 -18 -88 -40z m102 -27 c14 -32 13 -33 -10 -33
-21 0 -25 -5 -25 -30 0 -23 -7 -33 -30 -45 -16 -8 -34 -15 -39 -15 -12 0 -51
72 -51 92 1 14 107 68 128 65 8 -1 20 -17 27 -34z m185 -128 l0 -75 -100 0
-100 0 0 75 0 75 100 0 100 0 0 -75z"/>
<path d="M310 250 c0 -5 5 -10 10 -10 6 0 10 5 10 10 0 6 -4 10 -10 10 -5 0
-10 -4 -10 -10z"/>
</g>
</svg>
